<svg width="80" height="96" viewBox="0 0 80 96" fill="none" xmlns="http://www.w3.org/2000/svg">
<path d="M67.5506 11.3163C59.8265 3.77185 49.6206 -0.241311 38.8086 0.0112327C34.8827 0.103595 30.9879 0.807271 27.2326 2.1024C26.4989 2.35551 26.1094 3.15529 26.3623 3.88894C26.6155 4.6226 27.4156 5.01247 28.1489 4.75917C31.6302 3.55846 35.2389 2.90631 38.8747 2.82069C48.9229 2.58239 58.409 6.31528 65.5872 13.3267C72.7681 20.3405 76.7228 29.7303 76.7228 39.7663C76.7228 49.1829 73.1795 58.1518 66.7456 65.0211C66.215 65.5874 66.2442 66.4768 66.8106 67.0071C67.0817 67.261 67.4266 67.3867 67.7708 67.3867C68.1458 67.3867 68.52 67.2374 68.7967 66.9421C75.7201 59.5502 79.533 49.899 79.533 39.7663C79.5328 28.9672 75.2774 18.8634 67.5506 11.3163Z" fill="url(#paint0_linear)"/>
<path d="M62.9743 68.5263C60.583 70.4583 57.959 72.0865 55.175 73.3653C54.1913 73.8174 53.3428 74.5299 52.7217 75.4258L40.8643 92.5368C40.6112 92.9021 40.2112 93.1115 39.7668 93.1115C39.3225 93.1115 38.9223 92.9021 38.6692 92.5368L26.812 75.4263C26.1909 74.5301 25.3447 73.8185 24.365 73.3687C10.8393 67.1587 2.38508 53.5273 2.82685 38.6411C3.02394 31.9985 5.12578 25.4689 8.90458 19.758C12.5873 14.1927 17.6623 9.67367 23.581 6.6896C24.274 6.3402 24.5524 5.49527 24.203 4.80246C23.8536 4.10946 23.0083 3.83106 22.3158 4.18046C15.961 7.38447 10.5131 12.2349 6.56087 18.2073C2.493 24.3549 0.230403 31.3921 0.0177644 38.5577C-0.457535 54.5742 8.63911 69.2409 23.1926 75.9226C23.7149 76.1624 24.1679 76.5442 24.5024 77.027L36.3594 94.1375C37.1337 95.2548 38.4075 95.9217 39.7668 95.9217C41.1262 95.9216 42.4 95.2546 43.1741 94.1375L55.0315 77.0267C55.3659 76.5441 55.8214 76.1609 56.3482 75.9189C59.3441 74.5426 62.1674 72.7909 64.7402 70.7123C65.3439 70.2246 65.4379 69.34 64.9502 68.7364C64.4626 68.1325 63.5779 68.0389 62.9743 68.5263Z" fill="url(#paint1_linear)"/>
<path d="M9.09137 40.0226C9.09137 56.9369 22.8522 70.6975 39.7665 70.6975C56.6807 70.6975 70.4416 56.9367 70.4416 40.0226C70.4416 23.1084 56.6807 9.34753 39.7665 9.34753C22.8522 9.34753 9.09137 23.1084 9.09137 40.0226ZM39.7665 12.1577C55.1312 12.1577 67.6314 24.6579 67.6314 40.0226C67.6314 55.3874 55.1312 67.8873 39.7665 67.8873C24.4018 67.8873 11.9016 55.3874 11.9016 40.0226C11.9016 24.6579 24.4016 12.1577 39.7665 12.1577Z" fill="url(#paint2_linear)"/>
<path d="M28.4664 39.5489L30.7556 51.8398C30.9671 53.2181 32.1693 54.2529 33.5671 54.2529H45.9652C47.363 54.2529 48.5652 53.2181 48.7767 51.8398L51.0661 39.5489C54.7629 39.1937 57.663 36.0703 57.663 32.2821C57.663 28.2566 54.388 24.9815 50.3624 24.9815C49.7165 24.9815 49.0853 25.064 48.4744 25.2277C46.6888 22.1466 43.4002 20.219 39.7663 20.219C36.1325 20.219 32.8438 22.1466 31.0582 25.2277C30.4473 25.064 29.8161 24.9815 29.1701 24.9815C25.1446 24.9815 21.8698 28.2566 21.8698 32.2821C21.8698 36.0703 24.7699 39.1939 28.4664 39.5489ZM45.9993 51.4132C45.9969 51.4301 45.9825 51.4426 45.9654 51.4426H33.5673C33.5503 51.4426 33.5359 51.4301 33.5334 51.4132C33.5304 51.3924 33.5271 51.3716 33.5233 51.351L32.6135 46.4669H46.9192L46.0094 51.351C46.0057 51.3716 46.0023 51.3924 45.9993 51.4132ZM29.1701 27.7918C29.8603 27.7918 30.5226 27.9444 31.1382 28.2453C31.4868 28.4158 31.8904 28.4344 32.2531 28.297C32.6158 28.1597 32.9058 27.8783 33.054 27.5197C34.1813 24.7918 36.8161 23.0292 39.7665 23.0292C42.7168 23.0292 45.3515 24.7918 46.4789 27.5197C46.6269 27.8781 46.9169 28.1595 47.2796 28.297C47.6425 28.4342 48.0457 28.4158 48.3945 28.2453C49.0104 27.9444 49.6724 27.7918 50.3626 27.7918C52.8386 27.7918 54.853 29.8061 54.853 32.2821C54.853 34.7581 52.8386 36.7724 50.3626 36.7724C50.2586 36.7724 50.1419 36.7672 50.0061 36.7565C49.2906 36.7001 48.6465 37.1938 48.515 37.9001L47.4428 43.6567H32.0903L31.0181 37.9001C30.8935 37.2303 30.3088 36.7522 29.6379 36.7522C29.6012 36.7522 29.5643 36.7537 29.527 36.7565C29.391 36.7672 29.2745 36.7724 29.1703 36.7724C26.6943 36.7724 24.6801 34.7581 24.6801 32.2821C24.6801 29.8061 26.6941 27.7918 29.1701 27.7918Z" fill="url(#paint3_linear)"/>
<defs>
<linearGradient id="paint0_linear" x1="52.9091" y1="0" x2="52.9091" y2="67.3867" gradientUnits="userSpaceOnUse">
<stop stop-color="#21B457"/>
<stop offset="1" stop-color="#50CB81"/>
</linearGradient>
<linearGradient id="paint1_linear" x1="32.6312" y1="4.02966" x2="32.6312" y2="95.9217" gradientUnits="userSpaceOnUse">
<stop stop-color="#21B457"/>
<stop offset="1" stop-color="#50CB81"/>
</linearGradient>
<linearGradient id="paint2_linear" x1="39.7665" y1="9.34753" x2="39.7665" y2="70.6975" gradientUnits="userSpaceOnUse">
<stop stop-color="#21B457"/>
<stop offset="1" stop-color="#50CB81"/>
</linearGradient>
<linearGradient id="paint3_linear" x1="39.7664" y1="20.219" x2="39.7664" y2="54.2529" gradientUnits="userSpaceOnUse">
<stop stop-color="#21B457"/>
<stop offset="1" stop-color="#50CB81"/>
</linearGradient>
</defs>
</svg>
