<svg width="139" height="167" viewBox="0 0 139 167" fill="none" xmlns="http://www.w3.org/2000/svg">
<path fill-rule="evenodd" clip-rule="evenodd" d="M117.606 19.7017C104.158 6.5668 86.3895 -0.420123 67.5658 0.0195562C60.7308 0.180359 53.9501 1.40546 47.4119 3.66029C46.1347 4.10094 45.4565 5.49337 45.8969 6.77066C46.3375 8.04795 47.7306 8.72671 49.0072 8.28573C55.0682 6.19529 61.3509 5.05989 67.6809 4.91083C85.1748 4.49594 101.69 10.9949 114.187 23.2019C126.689 35.4128 133.574 51.7605 133.574 69.2332C133.574 85.6276 127.406 101.242 116.204 113.202C115.28 114.188 115.331 115.736 116.317 116.66C116.789 117.102 117.39 117.32 117.989 117.32C118.642 117.32 119.293 117.06 119.775 116.546C131.829 103.677 138.467 86.8742 138.467 69.2332C138.467 50.432 131.058 32.8412 117.606 19.7017Z" fill="url(#paint0_linear)"/>
<path fill-rule="evenodd" clip-rule="evenodd" d="M109.638 119.304C105.475 122.668 100.907 125.503 96.0598 127.729C94.3471 128.516 92.8699 129.757 91.7886 131.316L71.1449 161.107C70.7042 161.743 70.0078 162.107 69.2341 162.107C68.4605 162.107 67.7638 161.743 67.3231 161.107L46.6797 131.317C45.5984 129.757 44.1251 128.518 42.4196 127.735C18.8713 116.923 4.15243 93.1912 4.92155 67.2742C5.26468 55.7095 8.924 44.3414 15.5029 34.3987C21.9144 24.7095 30.7501 16.8419 41.0545 11.6466C42.261 11.0383 42.7457 9.56726 42.1374 8.36107C41.5291 7.15456 40.0574 6.66987 38.8519 7.27818C27.7881 12.8564 18.3034 21.301 11.4225 31.699C4.34031 42.402 0.401133 54.6537 0.0309279 67.1291C-0.79657 95.0138 15.0407 120.549 40.3784 132.181C41.2877 132.599 42.0764 133.264 42.6586 134.104L63.3017 163.893C64.6498 165.839 66.8674 167 69.2341 167C71.6009 167 73.8185 165.838 75.1662 163.893L95.81 134.104C96.3922 133.263 97.1851 132.596 98.1023 132.175C103.318 129.779 108.234 126.729 112.713 123.11C113.764 122.261 113.928 120.721 113.078 119.67C112.229 118.619 110.689 118.456 109.638 119.304Z" fill="url(#paint1_linear)"/>
<path fill-rule="evenodd" clip-rule="evenodd" d="M15.8281 69.6794C15.8281 99.1272 39.7857 123.084 69.2335 123.084C98.6813 123.084 122.639 99.1268 122.639 69.6794C122.639 40.2316 98.6813 16.274 69.2335 16.274C39.7857 16.274 15.8281 40.2316 15.8281 69.6794ZM69.2335 21.1666C95.9835 21.1666 117.746 42.9294 117.746 69.6794C117.746 96.4294 95.9835 118.192 69.2335 118.192C42.4835 118.192 20.7206 96.4294 20.7206 69.6794C20.7206 42.9294 42.4832 21.1666 69.2335 21.1666Z" fill="url(#paint2_linear)"/>
<path fill-rule="evenodd" clip-rule="evenodd" d="M49.5601 68.8549L53.5456 90.2534C53.9139 92.653 56.0069 94.4544 58.4405 94.4544H80.0255C82.4591 94.4544 84.5522 92.653 84.9204 90.2534L88.9062 68.8549C95.3422 68.2364 100.391 62.7985 100.391 56.2033C100.391 49.1949 94.6896 43.493 87.6811 43.493C86.5565 43.493 85.4576 43.6366 84.394 43.9216C81.2852 38.5574 75.5599 35.2014 69.2332 35.2014C62.9067 35.2014 57.1811 38.5574 54.0724 43.9216C53.0087 43.6366 51.9099 43.493 50.7852 43.493C43.7768 43.493 38.0753 49.1949 38.0753 56.2033C38.0753 62.7985 43.1244 68.2368 49.5601 68.8549ZM80.0849 89.5107C80.0807 89.54 80.0556 89.5619 80.0259 89.5619H58.4408C58.4111 89.5619 58.386 89.54 58.3818 89.5107C58.3765 89.4745 58.3707 89.4383 58.3641 89.4024L56.7803 80.8991H81.6864L80.1025 89.4024C80.096 89.4383 80.0901 89.4745 80.0849 89.5107ZM50.7852 48.3856C51.9868 48.3856 53.1399 48.6515 54.2117 49.1753C54.8187 49.4721 55.5212 49.5044 56.1527 49.2653C56.7842 49.0262 57.2891 48.5363 57.5471 47.912C59.5097 43.1626 64.0969 40.094 69.2335 40.094C74.37 40.094 78.957 43.1626 80.9199 47.912C81.1776 48.536 81.6825 49.0259 82.314 49.2653C82.9458 49.5041 83.6477 49.4721 84.255 49.1753C85.3271 48.6515 86.4798 48.3856 87.6814 48.3856C91.9921 48.3856 95.4991 51.8926 95.4991 56.2033C95.4991 60.514 91.9921 64.021 87.6814 64.021C87.5004 64.021 87.2972 64.0119 87.0607 63.9933C85.8151 63.8951 84.6937 64.7546 84.4647 65.9842L82.5981 76.0065H55.8693L54.0026 65.9842C53.7857 64.8182 52.7677 63.9858 51.5997 63.9858C51.5357 63.9858 51.4715 63.9884 51.4066 63.9933C51.1698 64.0119 50.9669 64.021 50.7855 64.021C46.4749 64.021 42.9682 60.514 42.9682 56.2033C42.9682 51.8926 46.4745 48.3856 50.7852 48.3856Z" fill="url(#paint3_linear)"/>
<defs>
<linearGradient id="paint0_linear" x1="69.2334" y1="35.2014" x2="69.2334" y2="94.4544" gradientUnits="userSpaceOnUse">
<stop stop-color="#21B457"/>
<stop offset="1" stop-color="#50CB81"/>
</linearGradient>
<linearGradient id="paint1_linear" x1="69.2334" y1="35.2014" x2="69.2334" y2="94.4544" gradientUnits="userSpaceOnUse">
<stop stop-color="#21B457"/>
<stop offset="1" stop-color="#50CB81"/>
</linearGradient>
<linearGradient id="paint2_linear" x1="69.2334" y1="35.2014" x2="69.2334" y2="94.4544" gradientUnits="userSpaceOnUse">
<stop stop-color="#21B457"/>
<stop offset="1" stop-color="#50CB81"/>
</linearGradient>
<linearGradient id="paint3_linear" x1="69.2334" y1="35.2014" x2="69.2334" y2="94.4544" gradientUnits="userSpaceOnUse">
<stop stop-color="#21B457"/>
<stop offset="1" stop-color="#50CB81"/>
</linearGradient>
</defs>
</svg>
