<svg width="35" height="35" viewBox="0 0 35 35" fill="none" xmlns="http://www.w3.org/2000/svg">
<path d="M32.048 23.5964C30.8488 22.3971 28.8974 22.3971 27.6981 23.5965L24.5506 26.744C24.1127 25.5781 22.9868 24.7461 21.6699 24.7461H18.3422C17.87 24.7461 17.6614 24.4875 17.1832 24.0667C15.6919 22.7544 13.702 22.1149 11.7242 22.3132C9.88894 22.4969 8.23778 23.3551 7.02228 24.7461H3.07617C2.50988 24.7461 2.05078 25.2052 2.05078 25.7715V33.9746C2.05078 34.5409 2.50988 35 3.07617 35C3.93832 35 22.856 35 23.7207 35C24.5422 35 25.3146 34.68 25.8957 34.0988L32.048 27.9465C33.2473 26.7472 33.2473 24.7957 32.048 23.5964ZM6.28906 32.9492H4.10156V26.7969H6.28906V32.9492ZM30.5979 26.4964L24.4456 32.6487C24.2547 32.8397 23.9904 32.9492 23.7207 32.9492C23.384 32.9492 8.66947 32.9492 8.33984 32.9492V26.3734C9.22858 25.2137 10.5018 24.4965 11.9284 24.3537C13.3414 24.2124 14.7632 24.6688 15.8284 25.6062C16.348 26.0635 17.0354 26.7969 18.3422 26.7969H21.6699C22.2353 26.7969 22.6953 27.2569 22.6953 27.8223C22.6953 28.3877 22.2353 28.8477 21.6699 28.8477H17.4809C16.4968 28.8477 15.565 29.3237 14.9883 30.1211C14.6565 30.58 14.7594 31.221 15.2183 31.5529C15.6771 31.8847 16.3181 31.7818 16.6501 31.3229C16.8423 31.0571 17.1529 30.8984 17.4809 30.8984C18.5775 30.8984 21.7568 30.8984 22.8715 30.8984C23.1435 30.8984 23.4043 30.7904 23.5966 30.5981L29.1481 25.0465C29.5479 24.6468 30.1982 24.6468 30.5979 25.0465C30.9977 25.4463 30.9977 26.0967 30.5979 26.4964Z" fill="url(#paint0_linear)"/>
<path d="M33.9746 18.5938H32.915C32.45 11.4472 27.1377 5.61798 20.3632 4.359C20.5433 3.96826 20.6445 3.53391 20.6445 3.07617C20.6445 1.37997 19.2646 0 17.5684 0C15.8722 0 14.4922 1.37997 14.4922 3.07617C14.4922 3.53336 14.5932 3.96724 14.7729 4.35764C7.99982 5.608 2.56115 11.4214 2.08571 18.5938H1.02539C0.459102 18.5938 0 19.0529 0 19.6191C0 20.1854 0.459102 20.6445 1.02539 20.6445H33.9746C34.5409 20.6445 35 20.1854 35 19.6191C35 19.0529 34.5409 18.5938 33.9746 18.5938ZM17.5684 2.05078C18.1338 2.05078 18.5938 2.51077 18.5938 3.07617C18.5938 3.64157 18.1338 4.10156 17.5684 4.10156C17.003 4.10156 16.543 3.64157 16.543 3.07617C16.543 2.51077 17.003 2.05078 17.5684 2.05078ZM4.1423 18.5938C4.68624 11.751 10.6131 6.13867 17.5684 6.13867C24.5772 6.13867 30.3398 11.6453 30.8601 18.5938H4.1423Z" fill="url(#paint1_linear)"/>
<defs>
<linearGradient id="paint0_linear" x1="17.4991" y1="22.2777" x2="17.4991" y2="35" gradientUnits="userSpaceOnUse">
<stop stop-color="#21B457"/>
<stop offset="1" stop-color="#50CB81"/>
</linearGradient>
<linearGradient id="paint1_linear" x1="17.5" y1="0" x2="17.5" y2="20.6445" gradientUnits="userSpaceOnUse">
<stop stop-color="#21B457"/>
<stop offset="1" stop-color="#50CB81"/>
</linearGradient>
</defs>
</svg>
