<svg width="79" height="79" viewBox="0 0 79 79" fill="none" xmlns="http://www.w3.org/2000/svg">
<path fill-rule="evenodd" clip-rule="evenodd" d="M72.337 53.2605C69.6302 50.5535 65.2255 50.5534 62.5185 53.2607L55.4142 60.365C54.4258 57.7334 51.8845 55.8555 48.9121 55.8555H41.4009C40.3352 55.8555 39.8643 55.2718 38.7848 54.3219C35.4189 51.3599 30.9274 49.9164 26.4632 50.3641C22.3207 50.7787 18.5939 52.7157 15.8503 55.8555H6.94336C5.66516 55.8555 4.62891 56.8917 4.62891 58.1699V76.6856C4.62891 77.9638 5.66516 79 6.94336 79C8.88935 79 51.5893 79 53.541 79C55.3952 79 57.1388 78.2776 58.4503 76.9659L72.337 63.0792C75.044 60.3722 75.044 55.9675 72.337 53.2605ZM14.1953 74.3711H9.25781V60.4844H14.1953V74.3711ZM69.0639 59.8061L55.1772 73.6928C54.7462 74.1239 54.1499 74.3711 53.541 74.3711C52.7811 74.3711 19.5682 74.3711 18.8242 74.3711V59.5285C20.8302 56.911 23.7042 55.292 26.9242 54.9698C30.1135 54.6507 33.3227 55.681 35.727 57.7968C36.8998 58.8291 38.4512 60.4844 41.4009 60.4844H48.9121C50.1883 60.4844 51.2266 61.5227 51.2266 62.7988C51.2266 64.075 50.1883 65.1133 48.9121 65.1133H39.457C37.2357 65.1133 35.1325 66.1878 33.8308 67.9875C33.0817 69.0233 33.3141 70.4702 34.3499 71.2193C35.3854 71.9684 36.8324 71.736 37.5816 70.7002C38.0155 70.1003 38.7166 69.7422 39.457 69.7422C41.932 69.7422 49.1082 69.7422 51.6243 69.7422C52.2383 69.7422 52.8268 69.4983 53.2608 69.0642L65.7914 56.5336C66.6937 55.6314 68.1616 55.6314 69.0639 56.5336C69.9662 57.4359 69.9662 58.9039 69.0639 59.8061Z" fill="url(#paint0_linear)"/>
<path fill-rule="evenodd" clip-rule="evenodd" d="M76.6855 41.9688H74.2938C73.2443 25.8379 61.2537 12.6806 45.9627 9.83889C46.3691 8.95693 46.5977 7.97653 46.5977 6.94336C46.5977 3.11479 43.4829 0 39.6543 0C35.8257 0 32.7109 3.11479 32.7109 6.94336C32.7109 7.9753 32.939 8.95462 33.3445 9.83581C18.0567 12.6581 5.78089 25.7798 4.70775 41.9688H2.31445C1.03626 41.9688 0 43.005 0 44.2832C0 45.5614 1.03626 46.5977 2.31445 46.5977H76.6855C77.9637 46.5977 79 45.5614 79 44.2832C79 43.005 77.9637 41.9688 76.6855 41.9688ZM39.6543 4.62891C40.9305 4.62891 41.9688 5.66717 41.9688 6.94336C41.9688 8.21955 40.9305 9.25781 39.6543 9.25781C38.3781 9.25781 37.3398 8.21955 37.3398 6.94336C37.3398 5.66717 38.3781 4.62891 39.6543 4.62891ZM9.34977 41.9688C10.5775 26.5238 23.9552 13.8559 39.6543 13.8559C55.4742 13.8559 68.4813 26.2851 69.6556 41.9688H9.34977Z" fill="url(#paint1_linear)"/>
<defs>
<linearGradient id="paint0_linear" x1="39.5" y1="0" x2="39.5" y2="46.5977" gradientUnits="userSpaceOnUse">
<stop stop-color="#21B457"/>
<stop offset="1" stop-color="#50CB81"/>
</linearGradient>
<linearGradient id="paint1_linear" x1="39.5" y1="0" x2="39.5" y2="46.5977" gradientUnits="userSpaceOnUse">
<stop stop-color="#21B457"/>
<stop offset="1" stop-color="#50CB81"/>
</linearGradient>
</defs>
</svg>
