<svg width="79" height="79" viewBox="0 0 79 79" fill="none" xmlns="http://www.w3.org/2000/svg">
<path id="Vector" d="M78.7996 67.6934C78.4523 66.025 76.8185 64.954 75.1494 65.3013C73.4809 65.6487 72.4099 67.283 72.7574 68.9514C72.9575 69.9125 72.7191 70.8975 72.1038 71.6545C71.7474 72.0929 70.9526 72.8281 69.6352 72.8281H9.36468C8.04729 72.8281 7.25251 72.0927 6.89608 71.6545C6.28059 70.8977 6.04236 69.9125 6.24248 68.9514C9.44507 53.5688 23.0132 42.3319 38.6818 41.953C38.9533 41.9635 39.2259 41.9687 39.4999 41.9687C39.7749 41.9687 40.0486 41.9633 40.3211 41.9528C51.3583 42.2176 61.5597 47.8079 67.7376 57.0215C68.6867 58.4371 70.6035 58.8152 72.0194 57.8661C73.4349 56.917 73.8131 55 72.8638 53.5845C67.8003 46.0326 60.4476 40.5412 52.064 37.7819C57.1728 33.9509 60.4843 27.847 60.4843 20.9844C60.4843 9.41365 51.0708 0 39.4999 0C27.9291 0 18.5156 9.41365 18.5156 20.9844C18.5156 27.8512 21.8311 33.9583 26.9453 37.789C22.2596 39.3316 17.8629 41.732 14.0147 44.8973C6.95842 50.7015 2.05224 58.7973 0.200218 67.6934C-0.380247 70.4811 0.315169 73.3442 2.10779 75.5485C3.89162 77.742 6.53673 79 9.36468 79H69.635C72.4631 79 75.1082 77.742 76.8919 75.5485C78.6848 73.3442 79.3801 70.4811 78.7996 67.6934ZM24.6874 20.9844C24.6874 12.8167 31.3322 6.17187 39.4999 6.17187C47.6676 6.17187 54.3124 12.8167 54.3124 20.9844C54.3124 28.9006 48.0703 35.3863 40.2497 35.778C40.0002 35.7734 39.7502 35.7711 39.4999 35.7711C39.2509 35.7711 39.0019 35.7736 38.7531 35.7782C30.9311 35.388 24.6874 28.9016 24.6874 20.9844Z" fill="url(#paint0_linear)"/>
<defs>
<linearGradient id="paint0_linear" x1="39.4999" y1="0" x2="39.4999" y2="79" gradientUnits="userSpaceOnUse">
<stop stop-color="#21B457"/>
<stop offset="1" stop-color="#50CB81"/>
</linearGradient>
</defs>
</svg>
